<?xml version="1.0" encoding="UTF-8"?>
<svg xmlns="http://www.w3.org/2000/svg" xmlns:xlink="http://www.w3.org/1999/xlink" width="150px" height="150px" viewBox="0 0 150 150" version="1.1">
<defs>
<filter id="alpha" filterUnits="objectBoundingBox" x="0%" y="0%" width="100%" height="100%">
  <feColorMatrix type="matrix" in="SourceGraphic" values="0 0 0 0 1 0 0 0 0 1 0 0 0 0 1 0 0 0 1 0"/>
</filter>
<mask id="mask0">
  <g filter="url(#alpha)">
<rect x="0" y="0" width="150" height="150" style="fill:rgb(0%,0%,0%);fill-opacity:0.101961;stroke:none;"/>
  </g>
</mask>
<clipPath id="clip1">
  <rect x="0" y="0" width="150" height="150"/>
</clipPath>
<g id="surface5" clip-path="url(#clip1)">
<path style=" stroke:none;fill-rule:nonzero;fill:rgb(100%,100%,100%);fill-opacity:1;" d="M 23.015625 21.09375 C 2.242188 39.605469 -6.574219 68.097656 0.109375 95.105469 C 6.792969 122.117188 27.882812 143.207031 54.894531 149.890625 C 81.902344 156.574219 110.394531 147.757812 128.90625 126.984375 Z M 23.015625 21.09375 "/>
</g>
</defs>
<g id="surface1">
<path style=" stroke:none;fill-rule:nonzero;fill:rgb(36.078431%,17.647059%,56.862745%);fill-opacity:1;" d="M 150 75 C 150 116.421875 116.421875 150 75 150 C 33.578125 150 0 116.421875 0 75 C 0 33.578125 33.578125 0 75 0 C 116.421875 0 150 33.578125 150 75 Z M 150 75 "/>
<use xlink:href="#surface5" mask="url(#mask0)"/>
<path style=" stroke:none;fill-rule:nonzero;fill:rgb(100%,100%,100%);fill-opacity:1;" d="M 17.34375 87.304688 C 16.460938 87.320312 15.609375 86.960938 15 86.320312 C 14.375 85.703125 14.027344 84.855469 14.039062 83.976562 C 14.03125 83.097656 14.378906 82.253906 15 81.632812 C 15.601562 80.980469 16.457031 80.613281 17.34375 80.625 C 18.230469 80.621094 19.078125 80.988281 19.6875 81.632812 C 20.320312 82.25 20.675781 83.09375 20.671875 83.976562 C 20.679688 84.859375 20.324219 85.707031 19.6875 86.320312 C 19.074219 86.953125 18.226562 87.308594 17.34375 87.304688 Z M 17.34375 87.304688 "/>
<path style=" stroke:none;fill-rule:nonzero;fill:rgb(100%,100%,100%);fill-opacity:1;" d="M 63.914062 86.71875 L 57.773438 86.71875 L 35.8125 52.640625 C 35.265625 51.800781 34.808594 50.90625 34.453125 49.96875 L 34.265625 49.96875 C 34.472656 51.914062 34.550781 53.871094 34.5 55.828125 L 34.5 86.71875 L 29.507812 86.71875 L 29.507812 43.992188 L 36 43.992188 L 57.375 77.460938 C 58.265625 78.851562 58.84375 79.804688 59.109375 80.320312 L 59.226562 80.320312 C 58.980469 78.234375 58.878906 76.136719 58.921875 74.039062 L 58.921875 43.992188 L 63.914062 43.992188 Z M 63.914062 86.71875 "/>
<path style=" stroke:none;fill-rule:nonzero;fill:rgb(100%,100%,100%);fill-opacity:1;" d="M 97.710938 86.71875 L 75 86.71875 L 75 43.992188 L 96.65625 43.992188 L 96.65625 48.515625 L 80.109375 48.515625 L 80.109375 62.71875 L 95.53125 62.71875 L 95.53125 67.21875 L 80.109375 67.21875 L 80.109375 82.03125 L 97.734375 82.03125 Z M 97.710938 86.71875 "/>
<path style=" stroke:none;fill-rule:nonzero;fill:rgb(100%,100%,100%);fill-opacity:1;" d="M 131.25 48.515625 L 118.828125 48.515625 L 118.828125 86.71875 L 113.835938 86.71875 L 113.835938 48.515625 L 101.554688 48.515625 L 101.554688 43.992188 L 131.25 43.992188 Z M 131.25 48.515625 "/>
<path style=" stroke:none;fill-rule:nonzero;fill:rgb(94.901961%,94.901961%,94.901961%);fill-opacity:1;" d="M 61.21875 115.78125 C 59.527344 116.601562 57.660156 116.996094 55.78125 116.929688 C 53.253906 117.042969 50.804688 116.0625 49.054688 114.234375 C 47.332031 112.308594 46.425781 109.785156 46.523438 107.203125 C 46.394531 104.378906 47.417969 101.621094 49.359375 99.5625 C 51.25 97.625 53.871094 96.570312 56.578125 96.65625 C 58.179688 96.601562 59.777344 96.878906 61.265625 97.476562 L 61.265625 99.820312 C 59.832031 99.027344 58.214844 98.621094 56.578125 98.648438 C 54.488281 98.589844 52.476562 99.445312 51.070312 100.992188 C 49.609375 102.65625 48.851562 104.824219 48.960938 107.039062 C 48.851562 109.136719 49.558594 111.191406 50.929688 112.78125 C 52.261719 114.214844 54.152344 114.992188 56.109375 114.914062 C 57.910156 114.960938 59.6875 114.507812 61.242188 113.601562 Z M 61.21875 115.78125 "/>
<path style=" stroke:none;fill-rule:nonzero;fill:rgb(94.901961%,94.901961%,94.901961%);fill-opacity:1;" d="M 70.804688 116.929688 C 68.917969 116.992188 67.09375 116.230469 65.8125 114.84375 C 64.53125 113.414062 63.867188 111.535156 63.960938 109.617188 C 63.84375 107.585938 64.542969 105.59375 65.90625 104.085938 C 67.296875 102.726562 69.191406 102.007812 71.132812 102.09375 C 72.972656 101.996094 74.761719 102.707031 76.03125 104.039062 C 77.277344 105.539062 77.90625 107.457031 77.789062 109.40625 C 77.886719 111.382812 77.207031 113.316406 75.890625 114.796875 C 74.582031 116.210938 72.730469 116.988281 70.804688 116.929688 Z M 70.96875 104.109375 C 69.664062 104.054688 68.402344 104.597656 67.546875 105.585938 C 66.644531 106.746094 66.195312 108.195312 66.28125 109.664062 C 66.199219 111.089844 66.652344 112.492188 67.546875 113.601562 C 68.410156 114.574219 69.667969 115.109375 70.96875 115.054688 C 72.242188 115.128906 73.480469 114.609375 74.320312 113.648438 C 75.171875 112.484375 75.585938 111.058594 75.492188 109.617188 C 75.585938 108.171875 75.171875 106.738281 74.320312 105.5625 C 73.492188 104.578125 72.25 104.042969 70.96875 104.109375 Z M 70.96875 104.109375 "/>
<path style=" stroke:none;fill-rule:nonzero;fill:rgb(94.901961%,94.901961%,94.901961%);fill-opacity:1;" d="M 88.734375 104.8125 C 88.226562 104.480469 87.628906 104.324219 87.023438 104.367188 C 86.066406 104.402344 85.1875 104.910156 84.679688 105.726562 C 83.980469 106.832031 83.644531 108.125 83.71875 109.429688 L 83.71875 116.601562 L 81.375 116.601562 L 81.375 102.539062 L 83.71875 102.539062 L 83.71875 105.46875 C 83.976562 104.5625 84.488281 103.75 85.195312 103.125 C 85.804688 102.59375 86.589844 102.304688 87.398438 102.304688 C 87.851562 102.285156 88.304688 102.347656 88.734375 102.492188 Z M 88.734375 104.8125 "/>
<path style=" stroke:none;fill-rule:nonzero;fill:rgb(94.901961%,94.901961%,94.901961%);fill-opacity:1;" d="M 102.46875 110.15625 L 92.554688 110.15625 C 92.488281 111.464844 92.914062 112.753906 93.75 113.765625 C 94.628906 114.640625 95.839844 115.101562 97.078125 115.03125 C 98.667969 115.015625 100.203125 114.460938 101.4375 113.460938 L 101.4375 115.570312 C 99.988281 116.527344 98.273438 116.992188 96.539062 116.90625 C 94.769531 116.996094 93.050781 116.292969 91.851562 114.984375 C 90.632812 113.460938 90.023438 111.539062 90.140625 109.59375 C 90.054688 107.640625 90.71875 105.730469 91.992188 104.25 C 93.167969 102.894531 94.886719 102.136719 96.679688 102.1875 C 98.300781 102.097656 99.871094 102.753906 100.945312 103.96875 C 102.023438 105.390625 102.558594 107.15625 102.445312 108.9375 Z M 100.125 108.257812 C 100.171875 107.171875 99.839844 106.101562 99.1875 105.234375 C 98.539062 104.5 97.589844 104.101562 96.609375 104.15625 C 95.589844 104.144531 94.613281 104.558594 93.914062 105.304688 C 93.144531 106.121094 92.65625 107.164062 92.53125 108.28125 Z M 100.125 108.257812 "/>
</g>
</svg>
